<svg version="1.1" id="Layer_1" xmlns="http://www.w3.org/2000/svg" xmlns:xlink="http://www.w3.org/1999/xlink" x="0px" y="0px"
	 width="100%" viewBox="0 0 736 552" enable-background="new 0 0 736 552" xml:space="preserve">
<path fill="#000000" opacity="1.000000" stroke="none" 
	d="
M454.000000,553.000000 
	C302.666687,553.000000 151.833389,553.000000 1.000061,553.000000 
	C1.000041,369.000061 1.000041,185.000122 1.000020,1.000135 
	C246.333237,1.000090 491.666473,1.000090 736.999756,1.000045 
	C736.999878,184.999863 736.999878,368.999725 736.999939,552.999756 
	C642.833313,553.000000 548.666687,553.000000 454.000000,553.000000 
M312.135895,376.951904 
	C313.015900,377.277069 313.894836,377.882477 314.776093,377.885956 
	C331.807831,377.953369 348.839966,377.978546 365.871429,377.894501 
	C366.938812,377.889221 368.001404,376.916229 369.981812,376.231354 
	C380.633240,376.282379 391.284637,376.333405 402.145813,377.075073 
	C404.451965,376.843323 406.758087,376.611572 409.816315,376.220093 
	C410.580902,376.267456 411.345520,376.314819 412.743469,376.845093 
	C416.840485,376.527832 420.937469,376.210541 425.657806,376.074219 
	C426.076477,376.180420 426.495117,376.286652 427.063721,377.009033 
	C427.163574,377.142242 427.262085,377.391174 427.363434,377.392334 
	C444.783936,377.588745 462.204559,377.782715 479.625641,377.903168 
	C480.524750,377.909393 481.428253,377.281555 482.329681,376.948944 
	C482.002136,376.259796 481.674591,375.570648 480.690063,374.625885 
	C461.664917,362.867798 442.814575,350.811005 423.516388,339.519623 
	C417.085815,335.757080 414.005493,330.881042 413.587280,323.520416 
	C412.010345,317.770325 410.660370,312.041290 411.874664,305.963379 
	C412.181488,304.427521 411.250793,302.644409 411.039520,300.199097 
	C411.241943,299.169281 411.444366,298.139465 412.124969,296.945770 
	C412.098938,296.300323 412.072937,295.654877 412.011749,294.218781 
	C412.156921,293.176422 412.302094,292.134033 413.017029,290.927246 
	C413.040070,289.957306 413.063080,288.987396 413.043182,287.162811 
	C413.291565,285.352264 413.527435,283.539917 413.790558,281.731506 
	C414.844147,274.489960 416.406342,267.279205 416.836792,260.001251 
	C417.357147,251.203888 408.140839,248.705917 404.334351,242.609726 
	C403.821869,241.788956 403.015167,241.044479 402.172211,240.573441 
	C401.561432,240.232162 400.665344,240.401520 399.224884,240.243988 
	C398.145416,240.545929 397.065979,240.847885 395.153687,241.029526 
	C383.976074,242.705841 373.111938,245.204254 362.892975,250.439972 
	C353.901062,255.047012 344.472595,258.800140 335.249451,262.958130 
	C328.348083,266.069366 321.466614,269.224670 314.318054,272.477875 
	C319.582703,286.304626 324.688324,299.713654 329.846008,313.259491 
	C331.243835,312.327423 332.194427,311.693542 333.878967,311.094666 
	C334.918427,312.392578 335.957886,313.690521 336.664948,315.567169 
	C329.260986,322.739471 321.799164,329.853851 314.507507,337.138489 
	C313.223206,338.421570 311.897247,340.405518 311.871490,342.085388 
	C311.703369,353.055054 311.888123,364.030151 311.761200,375.587219 
	C311.820129,375.783875 311.879089,375.980530 312.135895,376.951904 
M307.841187,263.701233 
	C307.087555,263.974091 306.177551,264.062134 305.603729,264.547546 
	C297.007812,271.818878 288.456238,279.142609 279.775604,286.555298 
	C284.319611,289.366302 288.424805,290.280731 292.175690,285.670349 
	C292.886963,284.796082 293.976746,284.229797 295.119934,284.305328 
	C295.476685,285.321808 295.833466,286.338318 295.893005,287.822479 
	C295.926819,288.837799 295.538757,290.302032 296.063416,290.795074 
	C299.299225,293.835938 302.740784,296.657837 306.383484,299.783875 
	C309.473480,297.212769 312.446777,294.890045 315.199799,292.330414 
	C315.808319,291.764648 316.079956,290.180054 315.750671,289.373108 
	C314.128998,285.399139 312.308258,281.501404 310.392914,277.658936 
	C310.165344,277.202393 308.930420,277.248016 307.328644,276.920135 
	C306.277435,276.528564 305.226196,276.137024 304.567535,275.134094 
	C308.766418,272.742065 310.299286,269.484344 308.033508,264.870941 
	C307.784271,264.363464 308.134430,263.561615 308.011566,263.005646 
	C308.011566,263.005646 308.162933,262.858917 308.162933,262.858917 
	C308.162933,262.858917 308.101593,262.983307 307.841187,263.701233 
M370.577332,190.503006 
	C370.577332,190.503006 370.484039,190.527390 369.970825,190.932327 
	C357.609985,207.128159 345.249146,223.323990 332.037964,240.634003 
	C342.893250,238.373337 352.426788,236.387924 362.725281,234.561234 
	C374.123077,232.289200 385.520905,230.017166 397.742950,227.841400 
	C407.042358,225.965256 416.341736,224.089127 426.371918,222.065552 
	C419.970642,218.190720 414.471344,214.792480 408.905457,211.506958 
	C396.646515,204.270523 384.353943,197.090973 371.523712,189.579453 
	C371.220215,189.857483 370.916718,190.135498 370.577332,190.503006 
M283.929810,256.083527 
	C259.789185,227.582825 235.648575,199.082123 210.585175,169.491959 
	C210.855881,172.524292 211.010422,174.255371 210.945480,176.900848 
	C211.082092,179.890625 211.402405,182.885864 211.313721,185.868942 
	C211.168442,190.755264 212.621765,194.649017 216.238800,198.226379 
	C222.735168,204.651459 228.727036,211.586716 234.927765,218.310577 
	C252.393356,237.249695 269.857941,256.189758 287.550201,275.375885 
	C290.069122,273.207855 292.396332,271.204865 295.005341,268.959290 
	C291.157471,264.614441 287.657104,260.661957 283.929810,256.083527 
z"/>
<path fill="#E6E6E6" opacity="1.000000" stroke="none" 
	d="
M401.936066,376.384460 
	C391.284637,376.333405 380.633240,376.282379 369.067505,376.180542 
	C359.763611,376.048340 351.373962,375.966919 342.989136,375.456848 
	C342.090912,369.160919 341.243835,363.284332 340.271362,357.428619 
	C338.889221,349.106262 334.373352,340.608307 342.115845,332.918488 
	C343.616089,331.428436 344.775055,329.523895 345.816833,327.657288 
	C348.289825,323.226501 350.598175,318.703796 353.435242,314.125793 
	C366.515656,314.033295 379.133911,314.033295 391.752167,314.033295 
	C391.925751,314.504425 392.099335,314.975525 392.272919,315.446655 
	C387.379547,320.096527 382.486176,324.746399 377.479584,329.503906 
	C388.470367,343.889801 399.266449,357.982880 409.993591,372.128174 
	C410.930695,373.363861 411.415314,374.942719 412.110107,376.362183 
	C411.345520,376.314819 410.580902,376.267456 409.008179,376.172363 
	C406.112061,376.211273 404.024048,376.297852 401.936066,376.384460 
z"/>
<path fill="#F8F8F8" opacity="1.000000" stroke="none" 
	d="
M333.145050,311.059662 
	C332.194427,311.693542 331.243835,312.327423 329.846008,313.259491 
	C324.688324,299.713654 319.582703,286.304626 314.318054,272.477875 
	C321.466614,269.224670 328.348083,266.069366 335.249451,262.958130 
	C344.472595,258.800140 353.901062,255.047012 362.892975,250.439972 
	C373.111938,245.204254 383.976074,242.705841 395.513306,241.454559 
	C395.200500,243.927704 394.289337,245.931396 393.898773,248.031891 
	C392.518982,255.452316 389.482971,262.081085 384.691742,267.783508 
	C383.777039,267.842072 382.887054,267.960602 382.318848,268.451569 
	C365.907837,282.631409 349.529053,296.848541 333.145050,311.059662 
z"/>
<path fill="#ADADAD" opacity="1.000000" stroke="none" 
	d="
M413.104980,323.977020 
	C414.005493,330.881042 417.085815,335.757080 423.516388,339.519623 
	C442.814575,350.811005 461.664917,362.867798 480.797119,375.160583 
	C479.102844,375.820770 477.302277,376.042023 475.500031,376.056793 
	C459.304779,376.189453 443.109253,376.285828 426.913788,376.392853 
	C426.495117,376.286652 426.076477,376.180420 425.282227,375.653870 
	C412.050049,359.642487 399.193512,344.051483 386.297272,328.412354 
	C389.440521,324.169220 392.167969,320.186462 395.249298,316.499420 
	C396.259583,315.290558 398.143494,314.273529 399.704620,314.151733 
	C408.928009,313.431885 408.927856,313.532135 412.086792,322.327484 
	C412.300476,322.922485 412.759857,323.429230 413.104980,323.977020 
z"/>
<path fill="#232323" opacity="1.000000" stroke="none" 
	d="
M413.346130,323.748718 
	C412.759857,323.429230 412.300476,322.922485 412.086792,322.327484 
	C408.927856,313.532135 408.928009,313.431885 399.704620,314.151733 
	C398.143494,314.273529 396.259583,315.290558 395.249298,316.499420 
	C392.167969,320.186462 389.440521,324.169220 386.297272,328.412354 
	C399.193512,344.051483 412.050049,359.642487 424.970551,375.563354 
	C420.937469,376.210541 416.840485,376.527832 412.426758,376.603638 
	C411.415314,374.942719 410.930695,373.363861 409.993591,372.128174 
	C399.266449,357.982880 388.470367,343.889801 377.479584,329.503906 
	C382.486176,324.746399 387.379547,320.096527 392.272919,315.446655 
	C392.099335,314.975525 391.925751,314.504425 391.752167,314.033295 
	C379.133911,314.033295 366.515656,314.033295 352.978088,314.043335 
	C347.038269,314.365082 342.017822,314.676788 336.997345,314.988464 
	C335.957886,313.690521 334.918427,312.392578 333.512024,311.077148 
	C349.529053,296.848541 365.907837,282.631409 382.318848,268.451569 
	C382.887054,267.960602 383.777039,267.842072 384.481293,268.041077 
	C374.152893,279.311096 363.860229,290.089905 353.601288,300.833435 
	C368.543518,300.833435 383.737762,300.833435 399.384644,300.944275 
	C403.521088,301.028381 407.204956,301.001648 410.888794,300.974915 
	C411.250793,302.644409 412.181488,304.427521 411.874664,305.963379 
	C410.660370,312.041290 412.010345,317.770325 413.346130,323.748718 
z"/>
<path fill="#FDFDFD" opacity="1.000000" stroke="none" 
	d="
M336.831146,315.277832 
	C342.017822,314.676788 347.038269,314.365082 352.515930,314.135803 
	C350.598175,318.703796 348.289825,323.226501 345.816833,327.657288 
	C344.775055,329.523895 343.616089,331.428436 342.115845,332.918488 
	C334.373352,340.608307 338.889221,349.106262 340.271362,357.428619 
	C341.243835,363.284332 342.090912,369.160919 342.528076,375.540771 
	C332.376343,376.004791 322.690491,375.956238 312.884521,375.700104 
	C312.554718,375.231750 312.285767,375.068726 311.957550,375.003448 
	C311.888123,364.030151 311.703369,353.055054 311.871490,342.085388 
	C311.897247,340.405518 313.223206,338.421570 314.507507,337.138489 
	C321.799164,329.853851 329.260986,322.739471 336.831146,315.277832 
z"/>
<path fill="#E5E5E5" opacity="1.000000" stroke="none" 
	d="
M398.932037,300.833435 
	C383.737762,300.833435 368.543518,300.833435 353.601288,300.833435 
	C363.860229,290.089905 374.152893,279.311096 384.655975,268.274658 
	C389.482971,262.081085 392.518982,255.452316 393.898773,248.031891 
	C394.289337,245.931396 395.200500,243.927704 395.929688,241.514709 
	C397.065979,240.847885 398.145416,240.545929 399.574219,240.647675 
	C401.121124,243.411285 402.068573,245.944763 403.563293,248.098404 
	C407.961578,254.435486 409.117584,260.682312 406.609711,268.458374 
	C403.216034,278.980927 401.415863,290.017426 398.932037,300.833435 
z"/>
<path fill="#E1E1E1" opacity="1.000000" stroke="none" 
	d="
M284.156738,256.709473 
	C287.657104,260.661957 291.157471,264.614441 295.005341,268.959290 
	C292.396332,271.204865 290.069122,273.207855 287.550201,275.375885 
	C269.857941,256.189758 252.393356,237.249695 234.927765,218.310577 
	C228.727036,211.586716 222.735168,204.651459 216.238800,198.226379 
	C212.621765,194.649017 211.168442,190.755264 211.313721,185.868942 
	C211.402405,182.885864 211.082092,179.890625 211.395630,176.508102 
	C212.507858,177.026810 213.522614,177.849548 213.777603,178.863388 
	C216.393066,189.261948 223.875931,196.468765 230.675156,203.924240 
	C239.631622,213.745224 249.346436,222.871109 258.630219,232.398132 
	C266.473511,240.446945 274.151917,248.656342 281.977570,256.722626 
	C282.327576,257.083435 283.413544,256.730164 284.156738,256.709473 
z"/>
<path fill="#E5E5E5" opacity="1.000000" stroke="none" 
	d="
M396.918701,227.745132 
	C385.520905,230.017166 374.123077,232.289200 362.214294,234.181091 
	C361.297028,232.204926 360.240540,230.444031 360.596191,229.041122 
	C362.207520,222.684937 364.388763,216.474243 366.036346,210.125931 
	C367.718384,203.644852 369.017365,197.064362 370.484039,190.527390 
	C370.484039,190.527390 370.577332,190.503006 370.930969,190.634460 
	C371.524811,190.843796 371.764984,190.921646 372.274841,191.193970 
	C380.194824,201.975739 387.886200,212.533936 395.440277,223.189453 
	C396.321594,224.432571 396.444275,226.213516 396.918701,227.745132 
z"/>
<path fill="#ADADAD" opacity="1.000000" stroke="none" 
	d="
M397.330811,227.793259 
	C396.444275,226.213516 396.321594,224.432571 395.440277,223.189453 
	C387.886200,212.533936 380.194824,201.975739 372.277344,190.915222 
	C372.031860,190.257370 372.053497,190.072784 372.075104,189.888214 
	C384.353943,197.090973 396.646515,204.270523 408.905457,211.506958 
	C414.471344,214.792480 419.970642,218.190720 426.371918,222.065552 
	C416.341736,224.089127 407.042358,225.965256 397.330811,227.793259 
z"/>
<path fill="#F8F8F8" opacity="1.000000" stroke="none" 
	d="
M370.227417,190.729858 
	C369.017365,197.064362 367.718384,203.644852 366.036346,210.125931 
	C364.388763,216.474243 362.207520,222.684937 360.596191,229.041122 
	C360.240540,230.444031 361.297028,232.204926 361.831787,234.101746 
	C352.426788,236.387924 342.893250,238.373337 332.037964,240.634003 
	C345.249146,223.323990 357.609985,207.128159 370.227417,190.729858 
z"/>
<path fill="#F2F2F2" opacity="1.000000" stroke="none" 
	d="
M284.043274,256.396484 
	C283.413544,256.730164 282.327576,257.083435 281.977570,256.722626 
	C274.151917,248.656342 266.473511,240.446945 258.630219,232.398132 
	C249.346436,222.871109 239.631622,213.745224 230.675156,203.924240 
	C223.875931,196.468765 216.393066,189.261948 213.777603,178.863388 
	C213.522614,177.849548 212.507858,177.026810 211.505356,176.050903 
	C211.010422,174.255371 210.855881,172.524292 210.585175,169.491959 
	C235.648575,199.082123 259.789185,227.582825 284.043274,256.396484 
z"/>
<path fill="#ADADAD" opacity="1.000000" stroke="none" 
	d="
M399.384644,300.944275 
	C401.415863,290.017426 403.216034,278.980927 406.609711,268.458374 
	C409.117584,260.682312 407.961578,254.435486 403.563293,248.098404 
	C402.068573,245.944763 401.121124,243.411285 399.910034,240.697281 
	C400.665344,240.401520 401.561432,240.232162 402.172211,240.573441 
	C403.015167,241.044479 403.821869,241.788956 404.334351,242.609726 
	C408.140839,248.705917 417.357147,251.203888 416.836792,260.001251 
	C416.406342,267.279205 414.844147,274.489960 413.790558,281.731506 
	C413.527435,283.539917 413.291565,285.352264 412.845764,287.838013 
	C412.581299,289.372711 412.514282,290.232208 412.447266,291.091675 
	C412.302094,292.134033 412.156921,293.176422 411.800079,294.809204 
	C411.607880,295.969666 411.627319,296.539642 411.646790,297.109650 
	C411.444366,298.139465 411.241943,299.169281 410.964172,300.587006 
	C407.204956,301.001648 403.521088,301.028381 399.384644,300.944275 
z"/>
<path fill="#E1E1E1" opacity="1.000000" stroke="none" 
	d="
M308.162445,277.060852 
	C308.930420,277.248016 310.165344,277.202393 310.392914,277.658936 
	C312.308258,281.501404 314.128998,285.399139 315.750671,289.373108 
	C316.079956,290.180054 315.808319,291.764648 315.199799,292.330414 
	C312.446777,294.890045 309.473480,297.212769 306.383484,299.783875 
	C302.740784,296.657837 299.299225,293.835938 296.063416,290.795074 
	C295.538757,290.302032 295.926819,288.837799 296.369476,287.482483 
	C300.618103,283.781952 304.390259,280.421387 308.162445,277.060852 
z"/>
<path fill="#E1E1E1" opacity="1.000000" stroke="none" 
	d="
M294.891876,283.521393 
	C293.976746,284.229797 292.886963,284.796082 292.175690,285.670349 
	C288.424805,290.280731 284.319611,289.366302 279.775604,286.555298 
	C288.456238,279.142609 297.007812,271.818878 305.603729,264.547546 
	C306.177551,264.062134 307.087555,263.974091 307.999695,263.322998 
	C308.158203,262.944794 308.206573,262.896301 308.206573,262.896301 
	C308.134430,263.561615 307.784271,264.363464 308.033508,264.870941 
	C310.299286,269.484344 308.766418,272.742065 304.073730,275.524780 
	C300.683868,278.450775 297.787872,280.986084 294.891876,283.521393 
z"/>
<path fill="#232323" opacity="1.000000" stroke="none" 
	d="
M313.004608,375.907654 
	C322.690491,375.956238 332.376343,376.004791 342.523285,375.969421 
	C351.373962,375.966919 359.763611,376.048340 368.609741,376.261597 
	C368.001404,376.916229 366.938812,377.889221 365.871429,377.894501 
	C348.839966,377.978546 331.807831,377.953369 314.776093,377.885956 
	C313.894836,377.882477 313.015900,377.277069 312.315430,376.543915 
	C312.664856,376.059845 312.834747,375.983734 313.004608,375.907654 
z"/>
<path fill="#232323" opacity="1.000000" stroke="none" 
	d="
M426.988770,376.700928 
	C443.109253,376.285828 459.304779,376.189453 475.500031,376.056793 
	C477.302277,376.042023 479.102844,375.820770 481.125610,375.288391 
	C481.674591,375.570648 482.002136,376.259796 482.329712,376.948944 
	C481.428253,377.281555 480.524750,377.909393 479.625641,377.903168 
	C462.204559,377.782715 444.783936,377.588745 427.363434,377.392334 
	C427.262085,377.391174 427.163574,377.142242 426.988770,376.700928 
z"/>
<path fill="#232323" opacity="1.000000" stroke="none" 
	d="
M295.005920,283.913361 
	C297.787872,280.986084 300.683868,278.450775 303.877441,275.830475 
	C305.226196,276.137024 306.277435,276.528564 307.745544,276.990479 
	C304.390259,280.421387 300.618103,283.781952 296.518066,287.248657 
	C295.833466,286.338318 295.476685,285.321808 295.005920,283.913361 
z"/>
<path fill="#232323" opacity="1.000000" stroke="none" 
	d="
M402.040955,376.729736 
	C404.024048,376.297852 406.112061,376.211273 408.632141,376.252258 
	C406.758087,376.611572 404.451965,376.843323 402.040955,376.729736 
z"/>
<path fill="#232323" opacity="1.000000" stroke="none" 
	d="
M412.732147,291.009460 
	C412.514282,290.232208 412.581299,289.372711 412.867218,288.265350 
	C413.063080,288.987396 413.040070,289.957306 412.732147,291.009460 
z"/>
<path fill="#232323" opacity="1.000000" stroke="none" 
	d="
M411.885864,297.027710 
	C411.627319,296.539642 411.607880,295.969666 411.817657,295.204529 
	C412.072937,295.654877 412.098938,296.300323 411.885864,297.027710 
z"/>
<path fill="#F8F8F8" opacity="1.000000" stroke="none" 
	d="
M371.799408,189.733826 
	C372.053497,190.072784 372.031860,190.257370 372.007690,190.720734 
	C371.764984,190.921646 371.524811,190.843796 370.948914,190.589722 
	C370.916718,190.135498 371.220215,189.857483 371.799408,189.733826 
z"/>
<path fill="#E6E6E6" opacity="1.000000" stroke="none" 
	d="
M312.884521,375.700104 
	C312.834747,375.983734 312.664856,376.059845 312.216492,376.156555 
	C311.879089,375.980530 311.820129,375.783875 311.859375,375.295349 
	C312.285767,375.068726 312.554718,375.231750 312.884521,375.700104 
z"/>
<path fill="#E1E1E1" opacity="1.000000" stroke="none" 
	d="
M308.129883,262.964050 
	C308.101593,262.983307 308.162933,262.858917 308.162933,262.858917 
	C308.162933,262.858917 308.011566,263.005646 308.109070,262.950989 
	C308.206573,262.896301 308.158203,262.944794 308.129883,262.964050 
z"/>
</svg>